<?xml version="1.0" encoding="utf-8"?>
<!-- Generator: Adobe Illustrator 23.0.2, SVG Export Plug-In . SVG Version: 6.00 Build 0)  -->
<svg version="1.1" id="Layer_1" xmlns="http://www.w3.org/2000/svg" xmlns:xlink="http://www.w3.org/1999/xlink" x="0px" y="0px"
	 viewBox="0 0 376.489 230.0582" enable-background="new 0 0 376.489 230.0582" xml:space="preserve">
<g>
	<g>
		<path d="M63.75,3.7379c-12.0996-2.8184-24.1914,4.707-27.0098,16.8066c-2.8183,12.0996,4.7071,24.1934,16.8067,27.0098
			c12.0996,2.8183,24.1933-4.7071,27.0117-16.8067C83.375,18.648,75.8496,6.5543,63.75,3.7379z"/>
		<path d="M48.0425,66.9381c-0.252-0.9825-0.4165-1.7588-0.5147-2.2588c-0.0473-0.25-0.0791-0.4317-0.0962-0.5342
			c-0.0049-0.0303-0.0083-0.0537-0.0107-0.0703c-0.6221-4.374-4.6729-7.416-9.0469-6.7949C34,57.9,30.9575,61.9508,31.5791,66.3248
			c0.1221,0.6387,1.6367,11.6767,9.0771,23.3838c2.5411,3.9736,5.836,8.0205,10.0162,11.6425
			c1.957,1.6954,4.0908,3.3067,6.4638,4.7569c7.4014,4.5469,16.8794,7.4873,28.2261,7.4873c0.0332,0,0.0649,0,0.0986,0
			c0.7393-0.002,1.4654-0.0147,2.1812-0.0342c4.4145-0.124,7.8955-3.8037,7.7715-8.2197c-0.1241-4.417-3.8033-7.8975-8.2203-7.7735
			c-0.6108,0.0166-1.1879,0.0274-1.7324,0.0274c-8.7221-0.0215-15.0151-2.124-19.9804-5.1387
			c-4.9527-3.0127-8.6495-7.1572-11.3697-11.417c-1.3457-2.1074-2.457-4.2431-3.3545-6.2851
			C49.4058,71.6939,48.5469,68.9019,48.0425,66.9381z"/>
		<path d="M98.0537,162.0582H57.3354c-0.5947-16.5186-3.9819-29.3584-6.9267-37.5918c-0.001-0.0176-0.0015-0.0332-0.0025-0.0508
			c-0.8896-6.6309-0.7075-13.6895,0.0025-20.6641c-4.3653-3.5791-8.2046-7.9091-11.437-12.9648
			c-6.564-10.3281-8.7134-20.1904-9.3335-23.9522l-0.0235-0.1386c-0.3916-2.7334,0.2862-5.3662,1.8907-7.503
			c1.604-2.1367,3.9458-3.5185,6.5893-3.8925c0.4683-0.0664,0.9453-0.1006,1.418-0.1006c4.9404,0,9.1924,3.6963,9.8896,8.5937
			c0.0191,0.1172,0.0489,0.2842,0.0918,0.5157c0.0899,0.4589,0.2461,1.1972,0.4854,2.1298c0.4472,1.7432,1.2617,4.461,2.6074,7.5088
			c0.5718,1.3018,1.269,2.7256,2.1099,4.1983c0.3515-1.7305,0.6919-3.4063,1.0024-4.9942
			c2.8711-9.9531-0.8828-21.8652-9.4199-23.9922c-8.5352-2.1289-20.9121,2.5079-25.9453,17.1495
			c-6.8067,20.1748-8.2676,33.3056-5.6817,55.5205c2.0982,10.7959,7.752,15.0918,14.0118,16.7187
			c1.6674,5.9502,3.2412,13.9072,3.6586,23.5098H0v68h98.0537H124h45.1572V116.4879H98.0537V162.0582z"/>
		<polygon points="124.9927,110.1558 124.9927,114.9508 165.75,114.9508 165.75,110.1558 152.564,110.1558 152.564,94.8443 
			165.1504,91.775 165.1504,67.0006 134.7822,59.5943 134.7822,54.6138 118,54.6138 118,104.1617 134.7822,104.1617 
			134.7822,99.1812 138.1787,98.3531 138.1787,110.1558 		"/>
	</g>
	<g>
		<path d="M230.9883,49.0748c12.0996-2.8164,19.625-14.9102,16.8066-27.0098C244.9766,9.9654,232.8848,2.44,220.7851,5.2584
			c-12.0996,2.8164-19.625,14.9101-16.8085,27.0097C206.7949,44.3677,218.8887,51.8931,230.9883,49.0748z"/>
		<path d="M238.2558,50.6802c-8.5371,2.127-12.291,14.0391-9.4199,23.9922c0.1104,0.5655,0.2295,1.1553,0.3462,1.7403
			c-0.3877,0.5537-0.8017,1.1006-1.2773,1.6211c-2.8721,3.0332-6.9126,5.8584-15.8887,5.9629
			c-3.0361,0-6.6377-0.3829-10.8594-1.3194l-3.9712-6.418l-18.6953,2.7217l11.917,20.6758
			c1.2691-1.1455,2.8316-1.9678,4.5718-2.3408c0.6875-0.1475,1.4004-0.2305,2.1343-0.2305l0.2841,0.0039
			c0.5372,0.0157,1.0464,0.0244,1.5342,0.0244h0.1328c3.7139-0.0068,7.1172-0.416,10.2676-1.2246
			c2.9595-0.7588,5.6968-1.8691,8.2422-3.3564c4.1226-2.4258,7.7056-5.874,10.645-10.2471
			c0.5874-0.8662,1.1206-1.7441,1.6192-2.6201c4.0683-7.1553,5.2798-14.2275,5.291-14.3027
			c0.1064-0.7452,0.3013-1.4571,0.5586-2.1368c1.4511-3.8378,5.144-6.5078,9.3403-6.5078c0.4688,0,0.9434,0.0313,1.4102,0.0977
			c5.4594,0.7773,9.2695,5.8516,8.4975,11.3086c-0.2763,1.7803-1.3867,7.9033-4.6855,15.4082
			c-3.9424,8.9326-9.3535,16.2178-16.1231,21.7519c0.709,6.9707,0.8907,14.0245,0.0015,20.6514
			c-0.1172,1.9834-0.1314,3.6973-0.0498,5.1914c-1.7227,8.4658-3.3687,20.6426-3.3677,36.2783
			c-0.0024,14.6153,1.436,32.2412,5.5718,52.6319c1.2017,5.9277,6.415,10.0195,12.2383,10.0205c0.8232,0,1.6582-0.0821,2.4961-0.252
			c6.7656-1.374,11.1396-7.9687,9.7685-14.7344c-3.8022-18.75-5.0737-34.6865-5.0737-47.666
			c0-11.8291,1.0576-21.1914,2.2422-27.9882c5.4023-2.0206,10.0659-6.4844,11.9282-16.0674
			c2.5859-22.2149,1.125-35.3457-5.6816-55.5205C259.168,53.1881,246.791,48.5513,238.2558,50.6802z"/>
		<path d="M252.9556,67.8443c0.6196-4.375-2.4214-8.4238-6.7969-9.0459c-2.9883-0.4228-5.8233,0.8643-7.5186,3.1172
			c-0.7856,1.043-1.3281,2.293-1.5259,3.6768l-0.0004,0.0029h0.0009c-0.0664,0.5937-1.6132,9.0498-6.6914,16.9629
			c-0.1806,0.2812-0.3545,0.5635-0.5444,0.8437c-2.7661,4.1123-6.4185,7.9873-11.2959,10.8574
			c-2.6016,1.5206-5.5801,2.7793-9.0542,3.6387c-2.4277,0.6006-5.1079,0.9981-8.0869,1.1406
			c-0.7749,0.0372-1.5523,0.0733-2.3687,0.0743c-0.5473,0.0029-1.124-0.0078-1.7314-0.0254
			c-2.3008-0.0645-4.3955,0.8535-5.898,2.3672c-1.3828,1.3935-2.2646,3.289-2.3242,5.4062c-0.124,4.416,3.3555,8.0967,7.7735,8.2207
			c0.7119,0.0215,1.4384,0.0322,2.1801,0.0322c0.041,0,0.0821,0,0.1231,0c11.3354,0,20.8047-2.9404,28.2011-7.4853
			c2.3731-1.4551,4.5132-3.0576,6.4664-4.7481c7.2509-6.2734,11.7631-13.8232,14.5561-20.1523
			C251.9702,74.649,252.8784,68.3297,252.9556,67.8443z"/>
	</g>
	<g>
		<path d="M336.8584,0.5914c-12.0996,2.8164-19.625,14.9101-16.8086,27.0097c2.8184,12.0997,14.9121,19.625,27.0117,16.8067
			c12.0996-2.8164,19.625-14.9102,16.8067-27.0098C361.0498,5.2984,348.958-2.227,336.8584,0.5914z"/>
		<path d="M343.6621,50.6802c-8.5371,2.127-12.291,14.0391-9.4199,23.9922c1.0097,5.1602,2.3066,11.1504,3.4277,17.5157
			c0.0029-0.0059,0.0054-0.0108,0.0083-0.0157c2.4502-4.7461,3.2764-12.0224,3.2359-17.2539c0-3.8545-0.3575-6.6572-0.3726-6.7754
			c-0.3765-2.6699,0.3037-5.3027,1.9087-7.4355c1.6074-2.1358,3.9482-3.5156,6.5932-3.8887
			c0.4644-0.0664,0.9371-0.1006,1.4058-0.1006c4.9497,0,9.2036,3.7002,9.8926,8.6045c0.1777,1.3379,0.5713,4.8213,0.5737,9.5801
			c-0.0151,7.1631-0.8559,13.4238-2.5679,19.1484c-2.5595,8.501-6.9858,14.9844-13.1279,19.3311
			c0.0405,0.1133,0.0806,0.2266,0.1211,0.3408c2.8579,8.0606,5.415,16.6787,6.7105,22.5244
			c0.3945,1.7813,0.6909,3.3399,0.9199,4.7432c1.2275,7.5225,0.2773,10-0.7779,11.2676c-2.8227,3.3896-8.9438,6.9394-15.9638,8.2383
			c-0.0713,2.2255-0.1133,4.5214-0.1133,6.9091c0,14.6153,1.4385,32.2412,5.5742,52.6319
			c1.2017,5.9277,6.4151,10.0195,12.2383,10.0205c0.8232,0,1.6577-0.0821,2.4956-0.252c6.7661-1.374,11.1377-7.9687,9.7686-14.7344
			c-3.8018-18.75-5.0757-34.6865-5.0757-47.666c0-11.8281,1.0591-21.1914,2.2427-27.9882
			c5.4028-2.0196,10.0668-6.4834,11.9292-16.0674c2.5859-22.2149,1.125-35.3457-5.6817-55.5205
			C364.5742,53.1881,352.1973,48.5513,343.6621,50.6802z"/>
		<path d="M315.8364,99.774c-3.8804-0.377-7.5556,2.123-8.5254,6.0195c-1.0688,4.2871,1.5396,8.6289,5.8257,9.6983
			c1.1118,0.2773,2.2031,0.5175,3.2764,0.7256C315.478,108.8111,315.0483,103.3267,315.8364,99.774z"/>
		<path d="M344.5195,111.4468c6.4907-4.7822,9.9942-11.5957,11.9131-17.9687c2.0313-6.79,2.4717-13.4434,2.4819-18.5742
			c-0.0019-5.3467-0.5171-9.0362-0.5512-9.3018c-0.6177-4.374-4.6651-7.4199-9.041-6.8027
			c-4.3741,0.6162-7.4205,4.665-6.8028,9.0391c0,0,0,0,0.0064,0.0488c0.06,0.4619,0.3891,3.25,0.3891,7.0166
			c0.043,5.499-0.8252,13.0801-3.4526,18.1719c-0.3965,0.7851-0.8233,1.5009-1.2764,2.165
			c-0.1592,0.2334-0.3218,0.4609-0.4887,0.6797c0.269,0.4541,0.5434,0.9433,0.8232,1.4678
			C340.4101,100.9302,342.5141,105.9781,344.5195,111.4468z"/>
		<path d="M343.9507,115.7818c-0.149-0.4238-0.2984-0.8447-0.4483-1.2637c-0.2309-0.6455-0.4624-1.2861-0.6953-1.9179
			c-1.1528-3.1328-2.3164-6.0762-3.4199-8.6543c-1.1084-2.5889-2.1548-4.8037-3.0684-6.4707
			c-0.3774-0.6875-0.7309-1.2784-1.0576-1.7657c-0.5327-0.7939-0.9927-1.3105-1.355-1.4814c-4.25-2-2.166,4.166-12.833,2.833
			c-1.1518-0.1435-1.9809,0.292-2.5561,1.1934c-0.315,0.4931-0.5518,1.1298-0.7251,1.8857
			c-0.7959,3.4688-0.2197,9.5108,0.6743,16.416c0.0884,0.6817,0.1797,1.3721,0.2734,2.0684
			c1.8667,13.9297,4.5542,30.539-0.0835,36.6035c5.1621,3.9023,11.7105,4.4092,17.647,3.2129
			c6.2334-1.2559,11.792-4.3897,14.353-7.4629c1.1636-1.3965,1.1079-5.1104,0.2847-10.0098
			C349.7549,133.9117,346.9766,124.3931,343.9507,115.7818z"/>
	</g>
</g>
</svg>
