<?xml version="1.0" encoding="iso-8859-1"?>
<!-- Generator: Adobe Illustrator 19.0.0, SVG Export Plug-In . SVG Version: 6.00 Build 0)  -->
<svg version="1.1" id="Layer_1" xmlns="http://www.w3.org/2000/svg" xmlns:xlink="http://www.w3.org/1999/xlink" x="0px" y="0px"
	 viewBox="0 0 502.111 502.111" style="enable-background:new 0 0 502.111 502.111;" xml:space="preserve">
<g>
	<polygon style="fill:#00EED1;" points="145.188,290.593 145.188,250.593 251.056,250.593 251.053,220.593 145.188,220.593 
		145.188,180.593 251.05,180.593 251.048,150.593 145.188,150.593 145.188,110.593 251.045,110.593 251.036,0.001 220.706,18.872 
		190.375,0 160.048,18.871 129.718,0.001 97.336,20.147 49.056,1.251 49.056,500.857 97.346,481.963 129.736,502.109 
		160.071,483.238 190.406,502.11 220.74,483.239 251.075,502.11 251.059,290.593 	"/>
	<path style="fill:#00DDC2;" d="M404.765,20.148l-32.39-20.146L342.04,18.873L311.706,0.001l-30.334,18.871L251.036,0.001
		l0.009,110.592h35.879v40h-35.875l0.002,30h35.873v40h-35.87l0.002,30h35.868v40h-35.865l0.016,211.518l30.33-18.871l30.331,18.872
		l30.327-18.871l30.331,18.87l32.381-20.146l48.281,18.896V1.254L404.765,20.148z M356.923,410.391h-40v-40h40V410.391z
		 M356.923,290.593h-40v-40h40V290.593z M356.923,220.593h-40v-40h40V220.593z M356.923,150.593h-40v-40h40V150.593z"/>
	<rect x="316.923" y="370.391" style="fill:#00AA95;" width="40" height="40"/>
	<rect x="316.923" y="110.593" style="fill:#00AA95;" width="40" height="40"/>
	<rect x="145.188" y="110.593" style="fill:#00AA95;" width="141.735" height="40"/>
	<rect x="316.923" y="180.593" style="fill:#00AA95;" width="40" height="40"/>
	<rect x="145.188" y="180.593" style="fill:#00AA95;" width="141.735" height="40"/>
	<rect x="316.923" y="250.593" style="fill:#00AA95;" width="40" height="40"/>
	<rect x="145.188" y="250.593" style="fill:#00AA95;" width="141.735" height="40"/>
</g>
<g>
</g>
<g>
</g>
<g>
</g>
<g>
</g>
<g>
</g>
<g>
</g>
<g>
</g>
<g>
</g>
<g>
</g>
<g>
</g>
<g>
</g>
<g>
</g>
<g>
</g>
<g>
</g>
<g>
</g>
</svg>
